<?xml version="1.0" encoding="UTF-8" standalone="no"?>
<!DOCTYPE svg PUBLIC "-//W3C//DTD SVG 1.1//EN" "http://www.w3.org/Graphics/SVG/1.1/DTD/svg11.dtd">
<svg width="100%" height="100%" viewBox="0 0 1039 276" version="1.1" xmlns="http://www.w3.org/2000/svg" xmlns:xlink="http://www.w3.org/1999/xlink" xml:space="preserve" xmlns:serif="http://www.serif.com/" style="fill-rule:evenodd;clip-rule:evenodd;stroke-linecap:round;stroke-linejoin:round;stroke-miterlimit:1.5;">
    <g transform="matrix(-0.8912,0,0,-0.918015,266.535672,285.783232)">
        <path d="M98.938,120.247L98.859,120.254L98.786,120.23L98.732,120.181L98.703,120.116L98.702,120.045L98.726,119.983C98.781,119.873 99.124,119.259 99.74,118.26C105.878,108.316 139.284,59.968 186.708,89.063C208.325,102.326 219.263,118.436 223.242,134.865C229.207,159.502 219.512,184.865 206.658,202.438C197.462,215.01 186.645,223.59 178.796,225.096C178.727,225.109 178.656,225.082 178.614,225.028C178.572,224.973 178.567,224.899 178.6,224.839C184.969,213.206 200.814,197.235 187.187,159.473C179.481,138.119 169.377,125.822 157.796,119.457C140.424,109.909 119.749,113.712 98.938,120.247Z" style="fill:rgb(49,164,197);"/>
        <path d="M99.063,120.782C99.045,120.783 98.661,120.882 98.347,120.58C97.831,120.08 98.499,119.228 98.525,119.182C103.936,109.65 137.987,58.071 187.25,88.229C261.895,133.925 210.846,213.991 182.448,225.044C181.391,225.455 179.124,226.201 178.488,226.057C177.733,225.886 177.345,225.056 177.686,224.406C183.427,213.475 199.94,197.791 186.228,159.799C168.479,110.622 138.129,109.714 102.988,119.537C101.141,120.053 101.161,120.094 99.063,120.782ZM99.688,119.46C106.577,117.436 115.806,114.352 126.766,113.197C146.966,111.069 173.068,115.716 188.617,160.476C200.767,195.451 187.663,211.658 180.479,223.622C193.219,219.488 210.626,200.214 218.964,177.405C230.768,145.115 222.89,112.011 185.617,89.564C156.027,71.745 132.451,84.793 118.303,97.305C110.293,104.388 103.358,113.344 99.688,119.46Z" style="fill:rgb(42,152,184);"/>
    </g>
    <g transform="matrix(-0.875262,0.021688,-0.021054,-0.901598,267.18014,278.739937)">
        <path d="M173.879,229.514C191.818,222.425 237.297,186.114 202.687,132.955C184.817,105.507 145.659,109.22 138.508,111.92C152.771,114.473 165.847,117.123 180.932,144.739C206.733,191.977 178.491,218.899 173.879,229.514Z" style="fill:rgb(38,92,107);stroke:rgb(28,98,119);stroke-width:1.13px;"/>
    </g>
    <g transform="matrix(0.8912,0,0,0.918015,16.048967,-9.783232)">
        <path d="M98.938,120.247L98.859,120.254L98.786,120.23L98.732,120.181L98.703,120.116L98.702,120.045L98.726,119.983C98.781,119.873 99.124,119.259 99.74,118.26C105.878,108.316 139.284,59.968 186.708,89.063C208.325,102.326 219.263,118.436 223.242,134.865C229.207,159.502 219.512,184.865 206.658,202.438C197.462,215.01 186.645,223.59 178.796,225.096C178.727,225.109 178.656,225.082 178.614,225.028C178.572,224.973 178.567,224.899 178.6,224.839C184.969,213.206 200.814,197.235 187.187,159.473C179.481,138.119 169.377,125.822 157.796,119.457C140.424,109.909 119.749,113.712 98.938,120.247Z" style="fill:rgb(49,164,197);"/>
        <path d="M99.063,120.782C99.045,120.783 98.661,120.882 98.347,120.58C97.831,120.08 98.499,119.228 98.525,119.182C103.936,109.65 137.987,58.071 187.25,88.229C261.895,133.925 210.846,213.991 182.448,225.044C181.391,225.455 179.124,226.201 178.488,226.057C177.733,225.886 177.345,225.056 177.686,224.406C183.427,213.475 199.94,197.791 186.228,159.799C168.479,110.622 138.129,109.714 102.988,119.537C101.141,120.053 101.161,120.094 99.063,120.782ZM99.688,119.46C106.577,117.436 115.806,114.352 126.766,113.197C146.966,111.069 173.068,115.716 188.617,160.476C200.767,195.451 187.663,211.658 180.479,223.622C193.219,219.488 210.626,200.214 218.964,177.405C230.768,145.115 222.89,112.011 185.617,89.564C156.027,71.745 132.451,84.793 118.303,97.305C110.293,104.388 103.358,113.344 99.688,119.46Z" style="fill:rgb(42,152,184);"/>
    </g>
    <g transform="matrix(0.875262,-0.021688,0.021054,0.901598,15.404498,-2.739937)">
        <path d="M173.879,229.514C191.818,222.425 237.297,186.114 202.687,132.955C184.817,105.507 145.659,109.22 138.508,111.92C152.771,114.473 165.847,117.123 180.932,144.739C206.733,191.977 178.491,218.899 173.879,229.514Z" style="fill:rgb(38,92,107);stroke:rgb(28,98,119);stroke-width:1.13px;"/>
    </g>
    <g transform="matrix(0.866997,0,0,0.866997,-9.705242,14.041791)">
        <g transform="matrix(138.108006,0,0,138.108006,1142.454293,189.891395)">
        </g>
        <text x="297.622px" y="189.891px" style="font-family:'ArialRoundedMTBold', 'Arial Rounded MT Bold', sans-serif;font-size:138.108px;fill:white;">AetherBlend</text>
    </g>
</svg>
